<?xml version="1.0" encoding="UTF-8" standalone="no"?>
<!-- Generator: Adobe Illustrator 16.0.0, SVG Export Plug-In . SVG Version: 6.00 Build 0)  -->

<svg
   xmlns:dc="http://purl.org/dc/elements/1.1/"
   xmlns:cc="http://creativecommons.org/ns#"
   xmlns:rdf="http://www.w3.org/1999/02/22-rdf-syntax-ns#"
   xmlns:svg="http://www.w3.org/2000/svg"
   xmlns="http://www.w3.org/2000/svg"
   xmlns:sodipodi="http://sodipodi.sourceforge.net/DTD/sodipodi-0.dtd"
   xmlns:inkscape="http://www.inkscape.org/namespaces/inkscape"
   version="1.1"
   id="Capa_1"
   x="0px"
   y="0px"
   width="511.626px"
   height="511.626px"
   viewBox="0 0 511.626 511.626"
   style="enable-background:new 0 0 511.626 511.626;"
   xml:space="preserve"
   inkscape:version="0.91 r13725"
   sodipodi:docname="comment-del.svg"><metadata
     id="metadata41"><rdf:RDF><cc:Work
         rdf:about=""><dc:format>image/svg+xml</dc:format><dc:type
           rdf:resource="http://purl.org/dc/dcmitype/StillImage" /><dc:title></dc:title></cc:Work></rdf:RDF></metadata><defs
     id="defs39" /><sodipodi:namedview
     pagecolor="#ffffff"
     bordercolor="#666666"
     borderopacity="1"
     objecttolerance="10"
     gridtolerance="10"
     guidetolerance="10"
     inkscape:pageopacity="0"
     inkscape:pageshadow="2"
     inkscape:window-width="1536"
     inkscape:window-height="801"
     id="namedview37"
     showgrid="false"
     inkscape:zoom="0.46127444"
     inkscape:cx="255.813"
     inkscape:cy="255.813"
     inkscape:window-x="-8"
     inkscape:window-y="-8"
     inkscape:window-maximized="1"
     inkscape:current-layer="Capa_1" /><g
     id="g3"
     style="opacity:0.444"><path
       d="M477.371,127.44c-22.843-28.074-53.871-50.249-93.076-66.523c-39.204-16.272-82.035-24.41-128.478-24.41   c-34.643,0-67.762,4.805-99.357,14.417c-31.595,9.611-58.812,22.602-81.653,38.97c-22.845,16.37-41.018,35.832-54.534,58.385   C6.757,170.833,0,194.484,0,219.228c0,28.549,8.61,55.3,25.837,80.234c17.227,24.931,40.778,45.871,70.664,62.811   c-2.096,7.611-4.57,14.846-7.426,21.693c-2.855,6.852-5.424,12.474-7.708,16.851c-2.286,4.377-5.376,9.233-9.281,14.562   c-3.899,5.328-6.849,9.089-8.848,11.275c-1.997,2.19-5.28,5.812-9.851,10.849c-4.565,5.048-7.517,8.329-8.848,9.855   c-0.193,0.089-0.953,0.952-2.285,2.567c-1.331,1.615-1.999,2.423-1.999,2.423l-1.713,2.566c-0.953,1.431-1.381,2.334-1.287,2.707   c0.096,0.373-0.094,1.331-0.57,2.851c-0.477,1.526-0.428,2.669,0.142,3.433v0.284c0.765,3.429,2.43,6.187,4.998,8.277   c2.568,2.092,5.474,2.95,8.708,2.563c12.375-1.522,23.223-3.606,32.548-6.276c49.87-12.758,93.649-35.782,131.334-69.097   c14.272,1.522,28.072,2.286,41.396,2.286c46.442,0,89.271-8.138,128.479-24.417c39.208-16.272,70.233-38.448,93.072-66.517   c22.843-28.062,34.263-58.663,34.263-91.781C511.626,186.108,500.207,155.509,477.371,127.44z"
       id="path5"
       style="" /></g><g
     id="g7" /><g
     id="g9" /><g
     id="g11" /><g
     id="g13" /><g
     id="g15" /><g
     id="g17" /><g
     id="g19" /><g
     id="g21" /><g
     id="g23" /><g
     id="g25" /><g
     id="g27" /><g
     id="g29" /><g
     id="g31" /><g
     id="g33" /><g
     id="g35" /></svg>