<?xml version="1.0" encoding="iso-8859-1"?>
<!-- Generator: Adobe Illustrator 18.0.0, SVG Export Plug-In . SVG Version: 6.00 Build 0)  -->
<!DOCTYPE svg PUBLIC "-//W3C//DTD SVG 1.1//EN" "http://www.w3.org/Graphics/SVG/1.1/DTD/svg11.dtd">
<svg version="1.1" id="Capa_1" xmlns="http://www.w3.org/2000/svg" xmlns:xlink="http://www.w3.org/1999/xlink" x="0px" y="0px"
	 viewBox="0 0 472.116 472.116" style="enable-background:new 0 0 472.116 472.116;" xml:space="preserve">
<g>
	<rect x="143.461" y="387.849" style="fill:#191918;" width="9" height="29.429"/>
	<rect x="165.146" y="387.849" style="fill:#191918;" width="9" height="29.429"/>
	<rect x="297.963" y="387.849" style="fill:#191918;" width="9" height="29.429"/>
	<rect x="319.648" y="387.849" style="fill:#191918;" width="9" height="29.429"/>
	<rect x="207.552" y="244.369" style="fill:#191918;" width="9" height="12.391"/>
	<rect x="231.56" y="244.369" style="fill:#191918;" width="9" height="12.391"/>
	<rect x="255.568" y="244.369" style="fill:#191918;" width="9" height="12.391"/>
	<rect x="207.552" y="282.316" style="fill:#191918;" width="9" height="24.008"/>
	<rect x="223.557" y="282.316" style="fill:#191918;" width="9" height="24.008"/>
	<rect x="239.562" y="282.316" style="fill:#191918;" width="9" height="24.008"/>
	<rect x="255.568" y="282.316" style="fill:#191918;" width="9" height="24.008"/>
	<rect x="220.717" y="172.554" style="fill:#191918;" width="9" height="34.849"/>
	<rect x="242.402" y="172.554" style="fill:#191918;" width="9" height="34.849"/>
	<rect x="77.081" y="410.516" style="fill:#191918;" width="9" height="16.762"/>
	<rect x="98.765" y="410.516" style="fill:#191918;" width="9" height="16.762"/>
	<rect x="26.098" y="410.516" style="fill:#191918;" width="9" height="16.762"/>
	<rect x="47.783" y="410.516" style="fill:#191918;" width="9" height="16.762"/>
	<rect x="386.036" y="410.516" style="fill:#191918;" width="9" height="16.762"/>
	<rect x="364.351" y="410.516" style="fill:#191918;" width="9" height="16.762"/>
	<rect x="437.018" y="410.516" style="fill:#191918;" width="9" height="16.762"/>
	<rect x="415.333" y="410.516" style="fill:#191918;" width="9" height="16.762"/>
	<path style="fill:#191918;" d="M449.518,373.266v-9h-99.764v-7.541h4.406c2.485,0,4.5-2.015,4.5-4.5
		c0-2.402-1.887-4.347-4.258-4.476v-10.41c2.37-0.128,4.258-2.073,4.258-4.476s-1.887-4.347-4.258-4.476v-5.765
		c2.37-0.128,4.258-2.073,4.258-4.476c0-2.485-2.015-4.5-4.5-4.5h-43.127v-42.111h4.792c2.485,0,4.5-2.015,4.5-4.5
		s-2.015-4.5-4.5-4.5h-4.792h-11.618v-11.764c0-2.485-2.015-4.5-4.5-4.5s-4.5,2.015-4.5,4.5v11.764h-7.264v-24.301h3.245
		c2.485,0,4.5-2.015,4.5-4.5s-2.015-4.5-4.5-4.5h-3.245v-4.941h3.245c2.485,0,4.5-2.015,4.5-4.5s-2.015-4.5-4.5-4.5h-16.021v-50.631
		h5.179c2.485,0,4.5-2.015,4.5-4.5s-2.015-4.5-4.5-4.5h-19.506v-18.105h1.694c2.485,0,4.5-2.015,4.5-4.5s-2.015-4.5-4.5-4.5h-1.522
		L240.525,3.938C240.242,1.688,238.328,0,236.06,0s-4.182,1.688-4.465,3.938L215.9,128.558h-0.752c-2.485,0-4.5,2.015-4.5,4.5
		s2.015,4.5,4.5,4.5h0.923v18.105h-18.735c-2.485,0-4.5,2.015-4.5,4.5s2.015,4.5,4.5,4.5h4.408v50.631h-15.25
		c-2.485,0-4.5,2.015-4.5,4.5s2.015,4.5,4.5,4.5h2.475v4.941h-2.475c-2.485,0-4.5,2.015-4.5,4.5s2.015,4.5,4.5,4.5h2.475v24.301
		h-6.493v-11.764c0-2.485-2.015-4.5-4.5-4.5s-4.5,2.015-4.5,4.5v11.764h-12.39h-4.021c-2.485,0-4.5,2.015-4.5,4.5s2.015,4.5,4.5,4.5
		h4.021v42.111h-43.13c-2.485,0-4.5,2.015-4.5,4.5c0,2.404,1.89,4.35,4.262,4.476v5.764c-2.372,0.126-4.262,2.072-4.262,4.476
		s1.89,4.35,4.262,4.476v10.409c-2.372,0.126-4.262,2.072-4.262,4.476c0,2.485,2.015,4.5,4.5,4.5h4.406v7.541H22.598v9h99.764
		v12.719H22.598v9h99.764v68.132H22.598v9h426.92v-9h-99.764v-68.132h99.764v-9h-99.764v-12.719H449.518z M340.754,430.585h-54.892
		v-73.86h54.892V430.585z M245.23,463.116h-21.441v-60.391c0-5.912,4.808-10.723,10.718-10.723c5.913,0,10.724,4.811,10.724,10.723
		V463.116z M234.506,383.003c-10.872,0-19.718,8.848-19.718,19.723v60.391h-5.978v-60.55c0-14.173,11.525-25.703,25.692-25.703
		c14.173,0,25.704,11.53,25.704,25.703v60.55h-5.978v-60.391C254.23,391.851,245.382,383.003,234.506,383.003z M234.503,367.863
		c-19.13,0-34.692,15.567-34.692,34.703v60.55h-4.558V356.725h81.609v106.392h-7.655v-60.55
		C269.208,383.431,253.639,367.863,234.503,367.863z M190.753,339.98c-2.485,0-4.5,2.015-4.5,4.5v3.244h-33.981v-3.244
		c0-2.485-2.015-4.5-4.5-4.5s-4.5,2.015-4.5,4.5v3.244h-16.555v-10.361h218.686v10.361h-16.559v-3.244c0-2.485-2.015-4.5-4.5-4.5
		s-4.5,2.015-4.5,4.5v3.244h-33.981v-3.244c0-2.485-2.015-4.5-4.5-4.5s-4.5,2.015-4.5,4.5v3.244h-37.854v-3.244
		c0-2.485-2.015-4.5-4.5-4.5s-4.5,2.015-4.5,4.5v3.244h-34.756v-3.244C195.253,341.995,193.239,339.98,190.753,339.98z
		 M302.034,271.536v42.111h-18.882v-42.111H302.034z M197.968,313.647v-42.111h76.184v42.111H197.968z M236.06,40.512l11.089,88.046
		h-22.178L236.06,40.512z M247.048,137.558v18.104h-6.488v-8.873h-9v8.873h-6.489v-18.104H247.048z M210.744,164.663h50.632v50.631
		h-50.632V164.663z M197.968,224.294h76.184v4.941h-76.184V224.294z M197.968,238.235h76.184v24.301h-76.184V238.235z
		 M170.085,271.536h18.883v42.111h-18.883V271.536z M345.403,322.647v5.716H126.717v-5.716H345.403z M186.253,356.725v73.86h-54.892
		v-73.86H186.253z M131.362,439.585h54.892v23.531h-54.892V439.585z M285.863,463.116v-23.531h54.892v23.531H285.863z"/>
</g>
<g>
</g>
<g>
</g>
<g>
</g>
<g>
</g>
<g>
</g>
<g>
</g>
<g>
</g>
<g>
</g>
<g>
</g>
<g>
</g>
<g>
</g>
<g>
</g>
<g>
</g>
<g>
</g>
<g>
</g>
</svg>
