<svg height="511pt" viewBox="1 0 511.999 511" width="511pt" xmlns="http://www.w3.org/2000/svg"><g fill-rule="evenodd"><path d="m136 322.496094h240c11 0 20-9 20-20s-9-20-20-20h-240c-11 0-20 9-20 20s9 20 20 20zm0 0" fill="#b5bbc9"/><path d="m156 402.496094c0-11-9-20-20-20h-80c-11 0-20 9-20 20s9 20 20 20h80c11 0 20-9 20-20zm0 0" fill="#b5bbc9"/><path d="m236 422.496094h-140v20c0 11 9 20 20 20h120zm0 0" fill="#858fa6"/><path d="m276 422.496094v40h120c11 0 20-9 20-20v-20zm0 0" fill="#858fa6"/><path d="m356 402.496094c0 11 9 20 20 20h80c11 0 20-9 20-20s-9-20-20-20h-80c-11 0-20 9-20 20zm0 0" fill="#b5bbc9"/><path d="m276 422.496094v-100h-40v180h40zm0 0" fill="#858fa6"/><path d="m236 136.410156h40v146.085938h-40zm0 0" fill="#858fa6"/><path d="m30 136.410156h173.039062c-11 0-20-9-20-20v-20h-173.039062v20c0 11 9 20 20 20zm0 0" fill="#ffc059"/><path d="m183.039062 116.410156c0 11 9 20 20 20h105.921876c11 0 20-9 20-20v-20h-145.921876zm0 0" fill="#ff9256"/><path d="m328.960938 96.410156v20c0 11-9 20-20 20h173.039062c11 0 20-9 20-20v-20zm0 0" fill="#ffc059"/><path d="m328.960938 96.410156h173.039062l-246-85.914062zm0 0" fill="#ffc059"/><path d="m328.960938 96.410156-72.960938-85.914062-72.960938 85.914062zm0 0" fill="#ff9256"/><path d="m183.039062 96.410156 72.960938-85.914062-246 85.914062zm0 0" fill="#ffc059"/></g><path d="m505.296875 86.96875-246-85.917969c-2.117187-.734375-4.476563-.734375-6.59375 0l-246 85.917969c-4.015625 1.402344-6.703125 5.191406-6.703125 9.441406v20c0 16.542969 13.457031 30 30 30h196v126.085938h-90c-16.542969 0-30 13.457031-30 30 0 16.542968 13.457031 30 30 30h90v80h-61.71875c1.109375-3.128906 1.71875-6.496094 1.71875-10 0-16.542969-13.457031-30-30-30h-80c-16.542969 0-30 13.457031-30 30 0 16.542968 13.457031 30 30 30h30v10c0 16.542968 13.457031 30 30 30h110v20c-5.523438 0-10 4.476562-10 10 0 5.523437 4.476562 10 10 10h60c5.523438 0 10-4.476563 10-10 0-5.523438-4.476562-10-10-10v-20h110c16.542969 0 30-13.457032 30-30v-10h30c16.542969 0 30-13.457032 30-30 0-16.542969-13.457031-30-30-30h-80c-16.542969 0-30 13.457031-30 30 0 3.507812.609375 6.871094 1.71875 10h-61.71875v-80h90c16.542969 0 30-13.457032 30-30 0-16.542969-13.457031-30-30-30-5.523438 0-10 4.476562-10 10 0 5.523437 4.476562 10 10 10 5.515625 0 10 4.488281 10 10 0 5.515625-4.484375 10-10 10h-240c-5.515625 0-10-4.484375-10-10 0-5.511719 4.484375-10 10-10h150c5.519531 0 10-4.476563 10-10 0-5.523438-4.480469-10-10-10v-126.085938h196c16.542969 0 30-13.457031 30-30v-20c0-4.25-2.6875-8.039062-6.703125-9.441406zm-459.296875 315.527344c0-5.515625 4.488281-10 10-10h80c5.515625 0 10 4.484375 10 10 0 5.511718-4.484375 10-10 10h-80c-5.511719 0-10-4.488282-10-10zm70 50c-5.515625 0-10-4.488282-10-10v-10h120v20zm250-50c0-5.515625 4.484375-10 10-10h80c5.515625 0 10 4.484375 10 10 0 5.511718-4.484375 10-10 10h-80c-5.515625 0-10-4.488282-10-10zm10 30h30v10c0 5.511718-4.484375 10-10 10h-110v-20zm-110 60h-20v-160h20zm41.347656-406.085938h-102.695312l51.347656-60.464844zm26.238282 0-46.148438-54.34375 155.601562 54.34375zm-313.585938 30v-10h45.511719c5.519531 0 10-4.476562 10-10 0-4.65625-3.1875-8.554687-7.496094-9.667968l156.546875-54.675782-46.148438 54.34375h-22.90625c-5.519531 0-10 4.476563-10 10 0 5.523438 4.480469 10 10 10h17.53125v10c0 3.503906.609376 6.871094 1.71875 10h-144.757812c-5.515625 0-10-4.484375-10-10zm246 156.085938h-20v-126.085938h20zm-62.960938-146.085938c-5.511718 0-10-4.488281-10-10v-10h125.921876v10c0 5.511719-4.488282 10-10 10zm288.960938-10c0 5.515625-4.484375 10-10 10h-144.757812c1.109374-3.128906 1.71875-6.492187 1.71875-10v-10h153.039062zm0 0"/><path d="m110.515625 86.410156h-.007813c-5.523437 0-9.996093 4.476563-9.996093 10 0 5.523438 4.480469 10 10.003906 10 5.519531 0 10-4.476562 10-10 0-5.523437-4.480469-10-10-10zm0 0"/><path d="m330.996094 272.496094c-5.523438 0-9.996094 4.476562-9.996094 10 0 5.523437 4.480469 10 10.003906 10 5.523438 0 10-4.476563 10-10 0-5.523438-4.476562-10-10-10zm0 0"/></svg>