<?xml version="1.0"?>
<svg xmlns="http://www.w3.org/2000/svg" viewBox="0 0 64 64" width="512" height="512"><g id="tent"><path d="M32,11,17,31,3,61H23V48a9,9,0,0,1,18,0V61H61L47,31Z" style="fill:#78b9eb"/><path d="M32,8c4,0,4,2,8,2V5c-4,0-4-2-8-2Z" style="fill:#78b9eb"/><path d="M62,31a.981.981,0,0,0-.443-.808l.01-.015L33,10.475V9.052a6.83,6.83,0,0,1,2.553.843A8.737,8.737,0,0,0,40,11a1,1,0,0,0,1-1V5a1,1,0,0,0-1-1,6.766,6.766,0,0,1-3.553-.895A8.737,8.737,0,0,0,32,2a1,1,0,0,0-1,1v7.475L2.433,30.177l.01.015A.981.981,0,0,0,2,31V61h.006a.989.989,0,0,0,.15.537A1,1,0,0,0,3,62H61a1,1,0,0,0,.844-.463.989.989,0,0,0,.15-.537H62ZM33,4.052a6.83,6.83,0,0,1,2.553.843A8.71,8.71,0,0,0,39,5.957V8.948a6.83,6.83,0,0,1-2.553-.843A8.71,8.71,0,0,0,33,7.043ZM47.5,30,36.476,15.3,57.789,30Zm-31,0H6.211L27.524,15.3Zm-1.07,2L4,56.492V32ZM32,12.667,45,30H19ZM60,32V56.492L48.57,32ZM40,60H24V48a8,8,0,0,1,16,0Zm2,0V48a10,10,0,0,0-20,0V60H4.57L17.637,32H46.363L59.43,60Z" style="fill:#1a6fb0"/></g></svg>
